<svg width="750" height="982" viewBox="0 0 750 982" fill="none" xmlns="http://www.w3.org/2000/svg">
<circle cx="661.032" cy="614.438" r="1.09547" fill="white" fill-opacity="0.6"/>
<circle cx="547.223" cy="724.822" r="1.09547" fill="white" fill-opacity="0.6"/>
<circle cx="725.148" cy="257.747" r="1.09547" fill="white" fill-opacity="0.1"/>
<circle cx="524.541" cy="610.377" r="1.09547" fill="white" fill-opacity="0.3"/>
<circle cx="746.247" cy="581.526" r="1.09547" fill="white" fill-opacity="0.15"/>
<circle cx="342.257" cy="574.906" r="1.09547" fill="white" fill-opacity="0.7"/>
<circle cx="69.2072" cy="591.382" r="1.09547" fill="white" fill-opacity="0.15"/>
<circle cx="561.871" cy="363.605" r="1.09547" fill="white" fill-opacity="0.15"/>
<circle cx="409.076" cy="298.149" r="1.09547" fill="white" fill-opacity="0.3"/>
<circle cx="140.679" cy="366.069" r="1.09547" fill="white" fill-opacity="0.1"/>
<circle cx="545.195" cy="146.228" r="1.09547" fill="white" fill-opacity="0.1"/>
<circle cx="341.497" cy="151.263" r="1.09547" fill="white" fill-opacity="0.3"/>
<circle cx="666.373" cy="968.6" r="1.09547" fill="white" fill-opacity="0.3"/>
<circle cx="311.773" cy="296.018" r="1.09547" fill="white" fill-opacity="0.3"/>
<circle cx="715.562" cy="761.737" r="1.09547" fill="white" fill-opacity="0.6"/>
<circle cx="192.013" cy="206.597" r="1.09547" fill="white" fill-opacity="0.15"/>
<circle cx="596.981" cy="850.978" r="1.09547" fill="white" fill-opacity="0.3"/>
<circle cx="70.4032" cy="805.548" r="1.09547" fill="white" fill-opacity="0.1"/>
<circle cx="77.1851" cy="184.977" r="1.09547" fill="white" fill-opacity="0.3"/>
<circle cx="463.768" cy="510.061" r="1.09547" fill="white" fill-opacity="0.3"/>
<circle cx="744.477" cy="964.926" r="1.09547" fill="white" fill-opacity="0.15"/>
<circle cx="214.592" cy="658.177" r="1.09547" fill="white" fill-opacity="0.3"/>
<circle cx="88.4693" cy="499.644" r="1.09547" fill="white" fill-opacity="0.3"/>
<circle cx="211.198" cy="327.25" r="1.09547" fill="white" fill-opacity="0.1"/>
<circle cx="106.217" cy="392.264" r="1.6432" fill="white" fill-opacity="0.3"/>
<circle cx="33.6504" cy="372.285" r="1.6432" fill="white" fill-opacity="0.3"/>
<circle cx="738.254" cy="417.371" r="1.6432" fill="white" fill-opacity="0.3"/>
<circle cx="70.906" cy="923.458" r="1.6432" fill="white" fill-opacity="0.15"/>
<circle cx="398.581" cy="375.8" r="1.6432" fill="white" fill-opacity="0.1"/>
<circle cx="84.9513" cy="306.22" r="1.6432" fill="white" fill-opacity="0.1"/>
<circle cx="42.2585" cy="386.089" r="1.6432" fill="white" fill-opacity="0.15"/>
<circle cx="301.865" cy="43.2207" r="1.6432" fill="white" fill-opacity="0.15"/>
<circle cx="79.4023" cy="462.552" r="1.6432" fill="white" fill-opacity="0.1"/>
<circle cx="110.633" cy="484.312" r="1.6432" fill="white" fill-opacity="0.3"/>
<circle cx="631.995" cy="437.983" r="1.6432" fill="white" fill-opacity="0.7"/>
<circle cx="677.791" cy="849.618" r="1.6432" fill="white" fill-opacity="0.3"/>
<circle cx="319.542" cy="148.833" r="1.6432" fill="white" fill-opacity="0.1"/>
<circle cx="26.286" cy="828.393" r="1.6432" fill="white" fill-opacity="0.1"/>
<circle cx="685.702" cy="631.586" r="1.6432" fill="white" fill-opacity="0.6"/>
<circle cx="110.405" cy="921.635" r="1.6432" fill="white" fill-opacity="0.7"/>
<circle cx="699.31" cy="86.6324" r="1.6432" fill="white" fill-opacity="0.3"/>
<circle cx="197.134" cy="543.974" r="0.547734" fill="white" fill-opacity="0.1"/>
<circle cx="219.333" cy="285.002" r="0.547734" fill="white" fill-opacity="0.1"/>
<circle cx="97.3288" cy="650.716" r="0.547734" fill="white" fill-opacity="0.15"/>
<circle cx="303.636" cy="576.244" r="0.547734" fill="white" fill-opacity="0.1"/>
<circle cx="657.052" cy="893.941" r="0.547734" fill="white" fill-opacity="0.1"/>
<circle cx="457.949" cy="844.035" r="0.547734" fill="white" fill-opacity="0.6"/>
<circle cx="623.097" cy="840.52" r="0.547734" fill="white" fill-opacity="0.1"/>
<circle cx="420.841" cy="484.705" r="0.547734" fill="white" fill-opacity="0.1"/>
<circle cx="105.324" cy="726.876" r="0.547734" fill="white" fill-opacity="0.3"/>
<circle cx="655.928" cy="271.283" r="0.547734" fill="white" fill-opacity="0.1"/>
<circle cx="334.615" cy="263.57" r="0.547734" fill="white" fill-opacity="0.15"/>
<circle cx="354.277" cy="853.418" r="0.547734" fill="white" fill-opacity="0.7"/>
<circle cx="525.207" cy="370.463" r="0.547734" fill="white" fill-opacity="0.8"/>
<circle cx="196.894" cy="112.483" r="0.547734" fill="white" fill-opacity="0.15"/>
<circle cx="597.908" cy="431.327" r="0.547734" fill="white" fill-opacity="0.15"/>
<circle cx="569.832" cy="54.3374" r="0.547734" fill="white" fill-opacity="0.1"/>
<circle cx="546.04" cy="979.481" r="0.547734" fill="white" fill-opacity="0.1"/>
<circle cx="508.518" cy="148.739" r="0.547734" fill="white" fill-opacity="0.7"/>
<circle cx="216.006" cy="415.535" r="0.547734" fill="white" fill-opacity="0.8"/>
<circle cx="152.9" cy="118.477" r="0.547734" fill="white" fill-opacity="0.1"/>
<circle cx="667.612" cy="221.892" r="0.547734" fill="white" fill-opacity="0.1"/>
<circle cx="521.69" cy="207.974" r="0.547734" fill="white" fill-opacity="0.15"/>
<circle cx="209.025" cy="32.5409" r="0.547734" fill="white" fill-opacity="0.1"/>
<circle cx="0.87412" cy="446.12" r="0.547734" fill="white" fill-opacity="0.3"/>
<circle cx="486.198" cy="712.873" r="0.547734" fill="white" fill-opacity="0.3"/>
<circle cx="472.414" cy="481.989" r="0.547734" fill="white" fill-opacity="0.3"/>
<circle cx="253.766" cy="191.721" r="0.547734" fill="white" fill-opacity="0.1"/>
<circle cx="706.633" cy="759.356" r="0.547734" fill="white" fill-opacity="0.1"/>
<circle cx="673.513" cy="128.116" r="0.547734" fill="white" fill-opacity="0.3"/>
<circle cx="470.01" cy="695.307" r="0.547734" fill="white" fill-opacity="0.1"/>
<circle cx="271.618" cy="122.631" r="0.547734" fill="white" fill-opacity="0.3"/>
<circle cx="150.953" cy="771.621" r="0.547734" fill="white" fill-opacity="0.1"/>
<circle cx="279.112" cy="202.958" r="0.547734" fill="white" fill-opacity="0.3"/>
<circle cx="552.165" cy="674.012" r="0.547734" fill="white" fill-opacity="0.1"/>
<circle cx="156.742" cy="116.912" r="0.547734" fill="white" fill-opacity="0.1"/>
<circle cx="622.849" cy="810.401" r="0.547734" fill="white" fill-opacity="0.3"/>
<circle cx="528.732" cy="445.878" r="0.547734" fill="white" fill-opacity="0.3"/>
<circle cx="687.543" cy="469.455" r="0.547734" fill="white" fill-opacity="0.3"/>
<circle cx="37.2792" cy="364.533" r="0.547734" fill="white" fill-opacity="0.1"/>
<circle cx="534.472" cy="127.18" r="0.547734" fill="white" fill-opacity="0.1"/>
<circle cx="539.996" cy="771.836" r="0.547734" fill="white" fill-opacity="0.1"/>
<circle cx="195.735" cy="312.648" r="0.547734" fill="white" fill-opacity="0.3"/>
<circle cx="53.6631" cy="870.238" r="0.547734" fill="white" fill-opacity="0.15"/>
<circle cx="37.8868" cy="421.099" r="0.547734" fill="white" fill-opacity="0.1"/>
<circle cx="395.432" cy="140.926" r="0.547734" fill="white" fill-opacity="0.1"/>
<circle cx="168.734" cy="94.4279" r="0.547734" fill="white" fill-opacity="0.1"/>
<circle cx="636.038" cy="94.9286" r="0.547734" fill="white" fill-opacity="0.3"/>
<circle cx="499.997" cy="271.914" r="0.547734" fill="white" fill-opacity="0.3"/>
<circle cx="508.065" cy="760.68" r="0.547734" fill="white" fill-opacity="0.1"/>
<circle cx="333.28" cy="398.596" r="0.547734" fill="white" fill-opacity="0.1"/>
<circle cx="231.853" cy="150.316" r="0.547734" fill="white" fill-opacity="0.15"/>
<circle cx="123.718" cy="126.11" r="0.547734" fill="white" fill-opacity="0.1"/>
<circle cx="556.064" cy="215.313" r="0.547734" fill="white" fill-opacity="0.3"/>
<circle cx="195.029" cy="13.7233" r="0.547734" fill="white" fill-opacity="0.15"/>
<circle cx="71.7212" cy="38.788" r="0.547734" fill="white" fill-opacity="0.1"/>
<circle cx="493.991" cy="86.0488" r="0.547734" fill="white" fill-opacity="0.6"/>
<circle cx="353.861" cy="800.176" r="0.547734" fill="white" fill-opacity="0.1"/>
<circle cx="536.294" cy="247.287" r="0.547734" fill="white" fill-opacity="0.3"/>
<circle cx="707.356" cy="447.943" r="0.547734" fill="white" fill-opacity="0.7"/>
<circle cx="90.204" cy="171.502" r="0.547734" fill="white" fill-opacity="0.1"/>
<circle cx="476.39" cy="211.385" r="0.547734" fill="white" fill-opacity="0.3"/>
<circle cx="158.757" cy="225.164" r="0.547734" fill="white" fill-opacity="0.3"/>
<circle cx="680.985" cy="882.689" r="0.547734" fill="white" fill-opacity="0.1"/>
<circle cx="1.9899" cy="761.581" r="0.547734" fill="white" fill-opacity="0.1"/>
<circle cx="316.957" cy="317.175" r="0.547734" fill="white" fill-opacity="0.1"/>
<circle cx="475.614" cy="717.102" r="0.547734" fill="white" fill-opacity="0.3"/>
<circle cx="52.6216" cy="67.9126" r="0.547734" fill="white" fill-opacity="0.15"/>
<circle cx="460.825" cy="821.413" r="0.547734" fill="white" fill-opacity="0.1"/>
<circle cx="222.833" cy="589.006" r="0.547734" fill="white" fill-opacity="0.3"/>
<circle cx="27.9746" cy="41.9952" r="0.547734" fill="white" fill-opacity="0.3"/>
<circle cx="79.5563" cy="168.753" r="0.547734" fill="white" fill-opacity="0.3"/>
<circle cx="618.848" cy="506.29" r="0.547734" fill="white" fill-opacity="0.1"/>
<circle cx="494.889" cy="970.231" r="0.547734" fill="white" fill-opacity="0.3"/>
<circle cx="15.4468" cy="565.239" r="0.547734" fill="white" fill-opacity="0.1"/>
<circle cx="199.921" cy="154.269" r="0.547734" fill="white" fill-opacity="0.3"/>
<circle cx="319.913" cy="71.2953" r="0.547734" fill="white" fill-opacity="0.1"/>
<circle cx="521.924" cy="306.199" r="0.547734" fill="white" fill-opacity="0.1"/>
<circle cx="345.411" cy="468.936" r="0.547734" fill="white" fill-opacity="0.3"/>
<circle cx="196.97" cy="917.101" r="0.547734" fill="white" fill-opacity="0.15"/>
<circle cx="718.015" cy="870.607" r="0.547734" fill="white" fill-opacity="0.6"/>
<circle cx="71.826" cy="400.775" r="0.547734" fill="white" fill-opacity="0.3"/>
<circle cx="60.0219" cy="217.139" r="0.547734" fill="white" fill-opacity="0.1"/>
<circle cx="498.06" cy="544.213" r="0.547734" fill="white" fill-opacity="0.3"/>
<circle cx="352.604" cy="957.512" r="0.547734" fill="white" fill-opacity="0.1"/>
<circle cx="687.781" cy="840.073" r="0.547734" fill="white" fill-opacity="0.15"/>
<circle cx="170.772" cy="607.256" r="0.547734" fill="white" fill-opacity="0.3"/>
<circle cx="216.562" cy="291.933" r="0.547734" fill="white" fill-opacity="0.3"/>
<circle cx="260.947" cy="764.493" r="0.547734" fill="white" fill-opacity="0.1"/>
<circle cx="535.177" cy="362.682" r="0.547734" fill="white" fill-opacity="0.1"/>
<circle cx="670.481" cy="427.517" r="0.547734" fill="white" fill-opacity="0.6"/>
<circle cx="665.76" cy="283.607" r="0.547734" fill="white" fill-opacity="0.3"/>
<circle cx="250.689" cy="140.964" r="0.547734" fill="white" fill-opacity="0.1"/>
<circle cx="575.292" cy="188.045" r="0.547734" fill="white" fill-opacity="0.3"/>
<circle cx="557.233" cy="316.037" r="0.547734" fill="white" fill-opacity="0.1"/>
<circle cx="541.122" cy="700.136" r="0.547734" fill="white" fill-opacity="0.1"/>
<circle cx="55.5454" cy="661.123" r="0.547734" fill="white" fill-opacity="0.1"/>
<circle cx="77.5516" cy="674.959" r="0.547734" fill="white" fill-opacity="0.6"/>
<circle cx="405.476" cy="479.669" r="0.547734" fill="white" fill-opacity="0.3"/>
<circle cx="464.67" cy="178.627" r="0.547734" fill="white" fill-opacity="0.3"/>
<circle cx="697.152" cy="799.777" r="0.547734" fill="white" fill-opacity="0.1"/>
<circle cx="652.244" cy="421.461" r="0.547734" fill="white" fill-opacity="0.1"/>
<circle cx="571.496" cy="265.151" r="0.547734" fill="white" fill-opacity="0.3"/>
<circle cx="300.992" cy="745.104" r="0.547734" fill="white" fill-opacity="0.1"/>
<circle cx="663.211" cy="77.852" r="0.547734" fill="white" fill-opacity="0.1"/>
<circle cx="181.068" cy="874.71" r="0.547734" fill="white" fill-opacity="0.15"/>
<circle cx="362.573" cy="120.405" r="0.547734" fill="white" fill-opacity="0.15"/>
<circle cx="228.75" cy="765.404" r="0.547734" fill="white" fill-opacity="0.15"/>
<circle cx="661.7" cy="139.893" r="0.547734" fill="white" fill-opacity="0.6"/>
<circle cx="199.886" cy="811.194" r="0.547734" fill="white" fill-opacity="0.1"/>
<circle cx="289.357" cy="301.273" r="0.547734" fill="white" fill-opacity="0.3"/>
<circle cx="102.508" cy="681.617" r="0.547734" fill="white" fill-opacity="0.15"/>
<circle cx="656.254" cy="556.575" r="0.547734" fill="white" fill-opacity="0.1"/>
<circle cx="563.543" cy="150.861" r="0.547734" fill="white" fill-opacity="0.7"/>
<circle cx="199.217" cy="296.073" r="0.547734" fill="white" fill-opacity="0.1"/>
<circle cx="412.391" cy="162.331" r="0.547734" fill="white" fill-opacity="0.15"/>
<circle cx="74.9199" cy="538.756" r="0.547734" fill="white" fill-opacity="0.1"/>
<circle cx="334.504" cy="170.169" r="0.547734" fill="white" fill-opacity="0.3"/>
<circle cx="548.456" cy="65.4258" r="0.547734" fill="white" fill-opacity="0.3"/>
<circle cx="567.735" cy="715.59" r="0.547734" fill="white" fill-opacity="0.3"/>
<circle cx="381.971" cy="908.994" r="0.547734" fill="white" fill-opacity="0.1"/>
<path d="M369.753 795.249L370.702 796.893H368.805L369.753 795.249Z" fill="white" fill-opacity="0.1"/>
<path d="M304.063 631.317L305.012 632.96H303.115L304.063 631.317Z" fill="white" fill-opacity="0.15"/>
<path d="M270.271 570.065L271.219 571.709H269.322L270.271 570.065Z" fill="white" fill-opacity="0.1"/>
<path d="M188.318 962.973L189.267 964.616H187.369L188.318 962.973Z" fill="white" fill-opacity="0.3"/>
<path d="M390.498 160.777L391.447 162.421H389.55L390.498 160.777Z" fill="white" fill-opacity="0.1"/>
<path d="M731.481 362.205L732.43 363.848H730.532L731.481 362.205Z" fill="white" fill-opacity="0.3"/>
<path d="M347.478 879.696L348.426 881.339H346.529L347.478 879.696Z" fill="white" fill-opacity="0.1"/>
<path d="M547.809 875.019L548.758 876.662H546.861L547.809 875.019Z" fill="white" fill-opacity="0.3"/>
<path d="M476.777 717.122L477.726 718.765H475.828L476.777 717.122Z" fill="white" fill-opacity="0.1"/>
<path d="M190.342 778.069L191.29 779.712H189.393L190.342 778.069Z" fill="white" fill-opacity="0.1"/>
<path d="M168.075 907.542L169.024 909.185H167.127L168.075 907.542Z" fill="white" fill-opacity="0.1"/>
<path d="M330.775 161.578L331.007 162.441L331.87 162.674L331.007 162.906L330.775 163.769L330.542 162.906L329.679 162.674L330.542 162.441L330.775 161.578Z" fill="white" fill-opacity="0.3"/>
<path d="M278.104 422.92L278.337 423.783L279.2 424.015L278.337 424.248L278.104 425.111L277.872 424.248L277.009 424.015L277.872 423.783L278.104 422.92Z" fill="white" fill-opacity="0.1"/>
<path d="M584.918 623.35L585.15 624.213L586.013 624.446L585.15 624.678L584.918 625.541L584.686 624.678L583.822 624.446L584.686 624.213L584.918 623.35Z" fill="white" fill-opacity="0.1"/>
<path d="M668.659 414.045L668.891 414.908L669.754 415.14L668.891 415.373L668.659 416.236L668.426 415.373L667.563 415.14L668.426 414.908L668.659 414.045Z" fill="white" fill-opacity="0.1"/>
<path d="M198.621 811.616L198.853 812.479L199.716 812.711L198.853 812.944L198.621 813.807L198.389 812.944L197.525 812.711L198.389 812.479L198.621 811.616Z" fill="white" fill-opacity="0.1"/>
<path d="M116.619 541.863L116.852 542.726L117.715 542.959L116.852 543.191L116.619 544.054L116.387 543.191L115.524 542.959L116.387 542.726L116.619 541.863Z" fill="white" fill-opacity="0.1"/>
<path d="M217.761 0L217.993 0.863084L218.856 1.09547L217.993 1.32785L217.761 2.19094L217.528 1.32785L216.665 1.09547L217.528 0.863084L217.761 0Z" fill="white" fill-opacity="0.3"/>
<path d="M4.89634 820.607L5.12873 821.47L5.99181 821.703L5.12873 821.935L4.89634 822.798L4.66396 821.935L3.80087 821.703L4.66396 821.47L4.89634 820.607Z" fill="white" fill-opacity="0.3"/>
<path d="M416.348 601.501L416.58 602.364L417.443 602.596L416.58 602.829L416.348 603.692L416.116 602.829L415.252 602.596L416.116 602.364L416.348 601.501Z" fill="white" fill-opacity="0.3"/>
<path d="M664.494 542.749L664.726 543.612L665.589 543.844L664.726 544.077L664.494 544.94L664.262 544.077L663.398 543.844L664.262 543.612L664.494 542.749Z" fill="white" fill-opacity="0.6"/>
<path d="M38.0177 484.46L38.2501 485.323L39.1131 485.555L38.2501 485.787L38.0177 486.651L37.7853 485.787L36.9222 485.555L37.7853 485.323L38.0177 484.46Z" fill="white" fill-opacity="0.3"/>
<path d="M175.135 179.379L175.367 180.242L176.23 180.475L175.367 180.707L175.135 181.57L174.902 180.707L174.039 180.475L174.902 180.242L175.135 179.379Z" fill="white" fill-opacity="0.1"/>
<path d="M715.91 519.88L716.143 520.743L717.006 520.975L716.143 521.208L715.91 522.071L715.678 521.208L714.815 520.975L715.678 520.743L715.91 519.88Z" fill="white" fill-opacity="0.1"/>
<path d="M441.274 193.674L441.507 194.537L442.37 194.769L441.507 195.002L441.274 195.865L441.042 195.002L440.179 194.769L441.042 194.537L441.274 193.674Z" fill="white" fill-opacity="0.15"/>
</svg>
